# xmcd CD database file generated by OrangeCD 5.2
#
# Track frame offsets:
#	150
#	11664
#	28118
#	42721
#	56497
#	75194
#	88647
#	101884
#	117692
#	132351
#	150351
#	163031
#	176914
#	192808
#
# Disc length: 2840 seconds
#
# Revision: 1
# Processed by: cddbd v1.5.1PL0 Copyright (c) Steve Scherf et al.
# Submitted via: OrangeCD 5.2
#
DISCID=b70b160e
DTITLE=Scooter Lee - Steppin' Out
DYEAR=2001
DGENRE=Country
TTITLE0=I Should've Lied
TTITLE1=Birmingham
TTITLE2=Losing My Mind
TTITLE3=The Way Things Are
TTITLE4=Woman In The Moon
TTITLE5=Don't Let Me Go
TTITLE6=This Love's On Me
TTITLE7=This Time The Heartbreak Wins
TTITLE8=Tell It Like It Used To Be
TTITLE9=Misty Blue
TTITLE10=OeeOeeO
TTITLE11=Don't Touch Me
TTITLE12=Steppin' Out
TTITLE13=The Best Of Times
EXTD=
EXTT0=
EXTT1=
EXTT2=
EXTT3=
EXTT4=
EXTT5=
EXTT6=
EXTT7=
EXTT8=
EXTT9=
EXTT10=
EXTT11=
EXTT12=
EXTT13=
PLAYORDER=
